<?xml version="1.0"?>
<svg width="311" height="316" xmlns="http://www.w3.org/2000/svg" xmlns:svg="http://www.w3.org/2000/svg">
 <!-- Created with SVG-edit - https://github.com/SVG-Edit/svgedit-->
 <title>Logo_LJRM</title>
 <defs>undefinedundefinedundefinedundefinedundefinedundefinedundefinedundefinedundefinedundefinedundefinedundefinedundefinedundefinedundefinedundefinedundefinedundefined</defs>
 <g class="layer">
  <title>Layer 1</title>
  <text fill="#000000" filter="url(#svg_4_blur)" font-family="Cursive" font-size="24" id="svg_21" stroke="#000000" stroke-dasharray="null" stroke-linecap="null" stroke-linejoin="null" stroke-width="0" text-anchor="middle" transform="rotate(-20.9846 164.431 173.439)" x="164.040405" xml:space="preserve" y="182.939394">L</text>
  <text fill="#000000" filter="url(#svg_4_blur)" font-family="Cursive" font-size="24" id="svg_10" stroke="#000000" stroke-dasharray="null" stroke-linecap="null" stroke-linejoin="null" stroke-width="0" text-anchor="middle" transform="rotate(-20.9846 164.254 173.398)" x="164.040405" xml:space="preserve" y="182.939394">L</text>
  <path d="m74.697901,150.075423l16.035719,-31.500005l42.761915,0l16.035714,31.500005l-16.035714,31.500005l-42.761915,0l-16.035719,-31.500005z" fill="#000000" fill-opacity="0" id="svg_5" opacity="0.75" stroke="#ba9393" stroke-dasharray="null" stroke-linecap="null" stroke-linejoin="round" stroke-width="3"/>
  <path d="m12.123724,118.439391l16.678577,-32.500007l44.476201,0l16.678571,32.500007l-16.678571,32.500007l-44.476201,0l-16.678577,-32.500007z" fill="#000000" fill-opacity="0" id="svg_4" opacity="0.75" stroke="#343cdb" stroke-linejoin="round" stroke-width="2"/>
  <path d="m152.123725,68.939397l5.107144,-7.500003l13.61905,0l5.107142,7.500003l-5.107142,7.500003l-13.61905,0l-5.107144,-7.500003z" fill="#000000" fill-opacity="0" id="svg_3" opacity="0.75" stroke="#ce35d6" stroke-dasharray="null" stroke-linecap="null" stroke-linejoin="round" stroke-width="2"/>
  <text fill="#000000" font-family="Monospace" font-size="24" font-weight="bold" id="svg_34" stroke="#000000" stroke-dasharray="null" stroke-linecap="null" stroke-linejoin="round" stroke-width="0" text-anchor="middle" transform="rotate(-0.554888 51.6132 121.067) matrix(1.15505 0 0 1.21068 -15.5389 -28.8728)" x="58.13969" xml:space="preserve" y="131.733098">LJ</text>
  <text fill="#000000" font-family="Monospace" font-size="24" font-weight="bold" id="svg_37" stroke="#000000" stroke-dasharray="null" stroke-linecap="null" stroke-linejoin="round" stroke-width="0" text-anchor="middle" transform="rotate(-1.9557 112.413 148.362) matrix(1.72768 0 0 1.14797 160.039 -87.9235)" x="-27.564922" xml:space="preserve" y="214.009261">RM</text>
  <line fill="none" fill-opacity="0" id="svg_38" stroke="#84847d" stroke-dasharray="null" stroke-linecap="null" stroke-linejoin="round" x1="4.176079" x2="117.176079" y1="77.007417" y2="78.007417"/>
  <line fill="none" fill-opacity="0" id="svg_39" stroke="#89898e" stroke-dasharray="null" stroke-linecap="null" stroke-linejoin="round" transform="rotate(-1 139.676 96.0074)" x1="115.176306" x2="164.17585" y1="76.981239" y2="115.033596"/>
  <line fill="none" fill-opacity="0" id="svg_40" stroke="#75757c" stroke-dasharray="null" stroke-linecap="null" stroke-linejoin="round" x1="248.176079" x2="249.176079" y1="110.007417" y2="109.007417"/>
  <line fill="none" fill-opacity="0" id="svg_41" stroke="#84847d" stroke-dasharray="null" stroke-linecap="null" stroke-linejoin="round" x1="6.676079" x2="119.676079" y1="47.507417" y2="48.507417"/>
  <line fill="none" fill-opacity="0" id="svg_42" stroke="#89898e" stroke-dasharray="null" stroke-linecap="null" stroke-linejoin="round" x1="120.176079" x2="166.176079" y1="48.007417" y2="86.007417"/>
  <line fill="none" fill-opacity="0" id="svg_43" stroke="#84847d" stroke-dasharray="null" stroke-linecap="null" stroke-linejoin="round" x1="4.676079" x2="117.676079" y1="61.507417" y2="62.507417"/>
  <line fill="none" fill-opacity="0" id="svg_45" stroke="#89898e" stroke-dasharray="null" stroke-linecap="null" stroke-linejoin="round" x1="116.818115" x2="162.818115" y1="62.83127" y2="100.83127"/>
  <text fill="#7f7f7f" font-family="Cursive" font-size="13" font-weight="normal" id="svg_46" stroke="#070707" stroke-dasharray="null" stroke-linecap="null" stroke-linejoin="round" stroke-width="0" text-anchor="middle" transform="matrix(1.99644 0 0 1.64796 -257.237 -106.93)" x="135.771539" xml:space="preserve" y="124.978221">@</text>
  <text fill="#7f7f7f" font-family="Cursive" font-size="13" font-weight="normal" id="svg_47" stroke="#070707" stroke-dasharray="null" stroke-linecap="null" stroke-linejoin="round" stroke-width="0" text-anchor="middle" transform="matrix(1.99644 0 0 1.64796 -257.237 -106.93)" x="183.855254" xml:space="preserve" y="131.28398">#</text>
  <text fill="#7f7f7f" font-family="Cursive" font-size="13" font-weight="normal" id="svg_48" stroke="#070707" stroke-dasharray="null" stroke-linecap="null" stroke-linejoin="round" stroke-width="0" text-anchor="middle" transform="matrix(1.99644 0 0 1.64796 -257.237 -106.93)" x="204.396736" xml:space="preserve" y="121.573386">...</text>
  <text fill="#7f7f7f" font-family="Cursive" font-size="43" font-weight="normal" id="svg_49" stroke="#070707" stroke-dasharray="null" stroke-linecap="null" stroke-linejoin="round" stroke-width="0" text-anchor="middle" transform="matrix(1.15179 0 0 1.02083 -192.439 -143.762)" x="364.872871" xml:space="preserve" y="228.0388">.</text>
  <line fill="none" id="svg_51" stroke="#969393" stroke-dasharray="null" stroke-linecap="null" stroke-linejoin="round" x1="168.823801" x2="161.823801" y1="90.834049" y2="138.834051"/>
  <line fill="none" id="svg_52" stroke="#7c7777" stroke-dasharray="null" stroke-linecap="null" stroke-linejoin="round" x1="163.823801" x2="216.823801" y1="125.834114" y2="124.834114"/>
  <line fill="none" id="svg_54" stroke="#7c7777" stroke-dasharray="null" stroke-linecap="null" stroke-linejoin="round" transform="rotate(-2.39008 169.324 188.834)" x1="208.823618" x2="129.823618" y1="189.834114" y2="187.834114"/>
  <line fill="none" id="svg_55" stroke="#7c7777" stroke-dasharray="null" stroke-linecap="null" stroke-linejoin="round" x1="162.823802" x2="194.823801" y1="131.834114" y2="130.834114"/>
  <line fill="none" id="svg_56" stroke="#7c7777" stroke-dasharray="null" stroke-linecap="null" stroke-linejoin="round" x1="193.823801" x2="193.823801" y1="131.834111" y2="188.834115"/>
  <path d="m159.421905,159.418046c2.487373,0 4.826052,0.973776 6.582891,2.740312c1.760879,1.767344 2.728998,4.122186 2.728998,6.628145l3.834497,0c0,-7.279484 -5.898419,-13.20053 -13.147195,-13.20053l0,3.832073l0.000808,0zm0.004849,-6.794616c8.867427,0 16.079838,7.252817 16.079838,16.167114l3.832881,0c0,-11.027514 -8.932884,-19.999995 -19.913527,-19.999995l0,3.832881l0.000808,0zm5.301223,13.488218c0,1.466726 -1.188735,2.656268 -2.654652,2.656268s-2.654652,-1.189543 -2.654652,-2.656268c0,-1.465109 1.188735,-2.654652 2.654652,-2.654652s2.654652,1.188735 2.654652,2.654652z" fill="none" id="svg_57" stroke="#7c7777" stroke-dasharray="null" stroke-linecap="null" stroke-linejoin="round" stroke-width="null"/>
  <text fill="#7f7f7f" font-family="Cursive" font-size="43" font-weight="normal" id="svg_61" stroke="#070707" stroke-dasharray="null" stroke-linecap="null" stroke-linejoin="round" stroke-width="0" text-anchor="middle" transform="matrix(1.56274 0 0 1.11184 -245.592 -150.411)" x="277.659163" xml:space="preserve" y="232.498091">.</text>
  <text fill="#7f7f7f" font-family="Cursive" font-size="43" font-weight="normal" id="svg_62" stroke="#070707" stroke-dasharray="null" stroke-linecap="null" stroke-linejoin="round" stroke-width="0" text-anchor="middle" transform="matrix(1.49055 0 0 1.22042 -245.219 -185.814)" x="303.939165" xml:space="preserve" y="276.807324">.</text>
  <text fill="#7f7f7f" font-family="Cursive" font-size="43" font-weight="normal" id="svg_63" stroke="#050505" stroke-dasharray="null" stroke-linecap="null" stroke-linejoin="round" stroke-width="0" text-anchor="middle" transform="matrix(1.56274 0 0 1.11184 -245.592 -150.411)" x="237.027697" xml:space="preserve" y="236.208751">.</text>
  <text fill="#7f7f7f" font-family="Cursive" font-size="43" font-weight="normal" id="svg_65" stroke="#070707" stroke-dasharray="null" stroke-linecap="null" stroke-linejoin="round" stroke-width="0" text-anchor="middle" transform="matrix(1.06588 0 0 1.03571 -201.755 -164.965)" x="263.231992" xml:space="preserve" y="214.117908">.</text>
  <text fill="#7f7f7f" font-family="Cursive" font-size="43" font-weight="normal" id="svg_66" stroke="#070707" stroke-dasharray="null" stroke-linecap="null" stroke-linejoin="round" stroke-width="0" text-anchor="middle" transform="matrix(1.49055 0 0 1.22042 -245.219 -185.814)" x="272.403869" xml:space="preserve" y="208.798003">.</text>
  <line fill="none" id="svg_67" stroke="#8c8888" stroke-dasharray="null" stroke-linecap="null" stroke-linejoin="round" x1="165.823801" x2="196.823801" y1="115.834114" y2="115.834114"/>
  <line fill="none" id="svg_69" stroke="#918b8b" stroke-dasharray="null" stroke-linecap="null" stroke-linejoin="round" x1="196.176079" x2="196.176079" y1="89.007417" y2="116.007417"/>
  <line fill="none" id="svg_70" stroke="#918b8b" stroke-dasharray="null" stroke-linecap="null" stroke-linejoin="round" x1="195.176079" x2="225.176079" y1="88.340751" y2="88.340751"/>
  <line fill="none" id="svg_71" stroke="#918b8b" stroke-dasharray="null" stroke-linecap="null" stroke-linejoin="round" x1="259.176079" x2="260.176079" y1="100.340751" y2="100.340751"/>
  <line fill="none" id="svg_72" stroke="#918b8b" stroke-dasharray="null" stroke-linecap="null" stroke-linejoin="round" x1="182.176079" x2="182.176079" y1="115.34075" y2="70.340751"/>
  <line fill="none" id="svg_73" stroke="#918b8b" stroke-dasharray="null" stroke-linecap="null" stroke-linejoin="round" x1="182.176079" x2="240.176081" y1="70.340753" y2="70.340753"/>
  <text fill="#7f7f7f" font-family="Cursive" font-size="13" font-weight="normal" id="svg_78" stroke="#070707" stroke-dasharray="null" stroke-linecap="null" stroke-linejoin="round" stroke-width="0" text-anchor="middle" transform="matrix(1.99644 0 0 1.64796 -257.237 -106.93)" x="238.631274" xml:space="preserve" y="169.284447">...</text>
  <text fill="#7f7f7f" font-family="Cursive" font-size="13" font-weight="normal" id="svg_79" stroke="#070707" stroke-dasharray="null" stroke-linecap="null" stroke-linejoin="round" stroke-width="0" text-anchor="middle" transform="matrix(1.99644 0 0 1.64796 -257.237 -106.93)" x="140.456519" xml:space="preserve" y="105.569311">...</text>
  <text fill="#7f7f7f" font-family="Cursive" font-size="43" font-weight="normal" id="svg_80" stroke="#070707" stroke-dasharray="null" stroke-linecap="null" stroke-linejoin="round" stroke-width="0" text-anchor="middle" transform="matrix(1.15179 0 0 1.02083 -118.115 -141.269)" x="311.939344" xml:space="preserve" y="207.119824">.</text>
  <text fill="#7f7f7f" font-family="Cursive" font-size="43" font-weight="normal" id="svg_81" stroke="#070707" stroke-dasharray="null" stroke-linecap="null" stroke-linejoin="round" stroke-width="0" text-anchor="middle" transform="matrix(1.15179 0 0 1.02083 -118.115 -141.269)" x="285.024716" xml:space="preserve" y="322.712034">.</text>
  <text fill="#7f7f7f" font-family="Cursive" font-size="43" font-weight="normal" id="svg_82" stroke="#070707" stroke-dasharray="null" stroke-linecap="null" stroke-linejoin="round" stroke-width="0" text-anchor="middle" transform="matrix(1.15179 0 0 1.02083 -118.115 -141.269)" x="292.839853" xml:space="preserve" y="260.995319">.</text>
  <text fill="#7f7f7f" font-family="Cursive" font-size="43" font-weight="normal" id="svg_83" stroke="#070707" stroke-dasharray="null" stroke-linecap="null" stroke-linejoin="round" stroke-width="0" text-anchor="middle" transform="matrix(1.15179 0 0 1.02083 -118.115 -141.269)" x="110.514953" xml:space="preserve" y="185.566504">.</text>
  <text fill="#7f7f7f" font-family="Cursive" font-size="43" font-weight="normal" id="svg_84" stroke="#070707" stroke-dasharray="null" stroke-linecap="null" stroke-linejoin="round" stroke-width="0" text-anchor="middle" transform="matrix(1.15179 0 0 1.02083 -118.115 -141.269)" x="107.910312" xml:space="preserve" y="200.260429">.</text>
  <text fill="#7f7f7f" font-family="Cursive" font-size="43" font-weight="normal" id="svg_85" stroke="#070707" stroke-dasharray="null" stroke-linecap="null" stroke-linejoin="round" stroke-width="0" text-anchor="middle" transform="matrix(1.15179 0 0 1.02083 -118.115 -141.269)" x="107.910312" xml:space="preserve" y="213.974759">.</text>
  <text fill="#7f7f7f" font-family="Cursive" font-size="43" font-weight="normal" id="svg_86" stroke="#070707" stroke-dasharray="null" stroke-linecap="null" stroke-linejoin="round" stroke-width="0" text-anchor="middle" transform="matrix(1.15179 0 0 1.02083 -118.115 -141.269)" x="245.088093" xml:space="preserve" y="222.791114">.</text>
  <line fill="none" id="svg_91" stroke="#6d6969" stroke-dasharray="null" stroke-linecap="null" stroke-linejoin="round" stroke-width="null" x1="2.176079" x2="3.176079" y1="290.340751" y2="290.340751"/>
  <g id="svg_93">
   <text fill="#7f7f7f" font-family="Cursive" font-size="43" font-weight="normal" id="svg_87" stroke="#070707" stroke-dasharray="null" stroke-linecap="null" stroke-linejoin="round" stroke-width="0" text-anchor="middle" transform="matrix(1.06588 0 0 1.03571 -127.431 -162.472)" x="282.024725" xml:space="preserve" y="339.74935">.</text>
   <text fill="#7f7f7f" font-family="Cursive" font-size="43" font-weight="normal" id="svg_88" stroke="#070707" stroke-dasharray="null" stroke-linecap="null" stroke-linejoin="round" stroke-width="0" text-anchor="middle" transform="matrix(1.06588 0 0 1.03571 -127.431 -162.472)" x="294.221219" xml:space="preserve" y="330.094138">.</text>
   <text fill="#7f7f7f" font-family="Cursive" font-size="43" font-weight="normal" id="svg_89" stroke="#070707" stroke-dasharray="null" stroke-linecap="null" stroke-linejoin="round" stroke-width="0" text-anchor="middle" transform="matrix(1.06588 0 0 1.03571 -127.431 -162.472)" x="290.468452" xml:space="preserve" y="352.301127">.</text>
   <line fill="none" id="svg_90" stroke="#6d6969" stroke-dasharray="null" stroke-linecap="null" stroke-linejoin="round" stroke-width="null" x1="173.176079" x2="184.176079" y1="188.34075" y2="180.34075"/>
   <line fill="none" id="svg_92" stroke="#5b5757" stroke-dasharray="null" stroke-linecap="null" stroke-linejoin="round" stroke-width="null" x1="172.176079" x2="181.176079" y1="188.34075" y2="199.340751"/>
  </g>
 </g>
</svg>